solid OBJECT
  facet normal -0 0 1
    outer loop
      vertex -0.027704847976565361 -0.026153875514864922 -0.013749999925494194
      vertex -3.7118614272912964e-05 -0.026153875514864922 -0.013749999925494194
      vertex -0.027704847976565361 6.0840488004032522e-05 -0.013749999925494194
    endloop
  endfacet
  facet normal -0 0 1
    outer loop
      vertex -3.7118614272912964e-05 -0.026153875514864922 -0.013749999925494194
      vertex 0.027630610391497612 -0.026153875514864922 -0.013749999925494194
      vertex 0.027630610391497612 6.0840488004032522e-05 -0.013749999925494194
    endloop
  endfacet
  facet normal 0 -0 1
    outer loop
      vertex -0.027704847976565361 0.026275556534528732 -0.013749999925494194
      vertex -0.027704847976565361 6.0840488004032522e-05 -0.013749999925494194
      vertex -3.7118614272912964e-05 0.026275556534528732 -0.013749999925494194
    endloop
  endfacet
  facet normal 0 -0 1
    outer loop
      vertex 0.027630610391497612 0.026275556534528732 -0.013749999925494194
      vertex -3.7118614272912964e-05 0.026275556534528732 -0.013749999925494194
      vertex 0.027630610391497612 6.0840488004032522e-05 -0.013749999925494194
    endloop
  endfacet
  facet normal 0 -0 1
    outer loop
      vertex -0.027704847976565361 6.0840488004032522e-05 -0.013749999925494194
      vertex -3.7118614272912964e-05 -0.026153875514864922 -0.013749999925494194
      vertex -3.7118614272912964e-05 0.026275556534528732 -0.013749999925494194
    endloop
  endfacet
  facet normal -0 0 1
    outer loop
      vertex -3.7118614272912964e-05 -0.026153875514864922 -0.013749999925494194
      vertex 0.027630610391497612 6.0840488004032522e-05 -0.013749999925494194
      vertex -3.7118614272912964e-05 0.026275556534528732 -0.013749999925494194
    endloop
  endfacet
  facet normal -1 0 0
    outer loop
      vertex -0.027704847976565361 -0.026153875514864922 -0.029149999842047691
      vertex -0.027704847976565361 -0.026153875514864922 -0.013749999925494194
      vertex -0.027704847976565361 6.0840488004032522e-05 -0.029149999842047691
    endloop
  endfacet
  facet normal -1 0 0
    outer loop
      vertex -0.027704847976565361 -0.026153875514864922 -0.013749999925494194
      vertex -0.027704847976565361 6.0840488004032522e-05 -0.013749999925494194
      vertex -0.027704847976565361 6.0840488004032522e-05 -0.029149999842047691
    endloop
  endfacet
  facet normal -1 0 0
    outer loop
      vertex -0.027704847976565361 6.0840488004032522e-05 -0.013749999925494194
      vertex -0.027704847976565361 0.026275556534528732 -0.013749999925494194
      vertex -0.027704847976565361 0.026275556534528732 -0.029149999842047691
    endloop
  endfacet
  facet normal -1 -0 -0
    outer loop
      vertex -0.027704847976565361 0.026275556534528732 -0.029149999842047691
      vertex -0.027704847976565361 6.0840488004032522e-05 -0.029149999842047691
      vertex -0.027704847976565361 6.0840488004032522e-05 -0.013749999925494194
    endloop
  endfacet
  facet normal 0 -0 -1
    outer loop
      vertex -0.027704847976565361 -0.026153875514864922 -0.029149999842047691
      vertex -0.027704847976565361 6.0840488004032522e-05 -0.029149999842047691
      vertex -3.7118614272912964e-05 -0.026153875514864922 -0.029149999842047691
    endloop
  endfacet
  facet normal 0 0 -1
    outer loop
      vertex -3.7118614272912964e-05 -0.026153875514864922 -0.029149999842047691
      vertex 0.027630610391497612 6.0840488004032522e-05 -0.029149999842047691
      vertex 0.027630610391497612 -0.026153875514864922 -0.029149999842047691
    endloop
  endfacet
  facet normal 0 0 -1
    outer loop
      vertex -0.027704847976565361 0.026275556534528732 -0.029149999842047691
      vertex -3.7118614272912964e-05 0.026275556534528732 -0.029149999842047691
      vertex -0.027704847976565361 6.0840488004032522e-05 -0.029149999842047691
    endloop
  endfacet
  facet normal 0 0 -1
    outer loop
      vertex 0.027630610391497612 0.026275556534528732 -0.029149999842047691
      vertex 0.027630610391497612 6.0840488004032522e-05 -0.029149999842047691
      vertex -3.7118614272912964e-05 0.026275556534528732 -0.029149999842047691
    endloop
  endfacet
  facet normal -0 -0 -1
    outer loop
      vertex -0.027704847976565361 6.0840488004032522e-05 -0.029149999842047691
      vertex -3.7118614272912964e-05 0.026275556534528732 -0.029149999842047691
      vertex -3.7118614272912964e-05 -0.026153875514864922 -0.029149999842047691
    endloop
  endfacet
  facet normal -0 0 -1
    outer loop
      vertex -3.7118614272912964e-05 -0.026153875514864922 -0.029149999842047691
      vertex -3.7118614272912964e-05 0.026275556534528732 -0.029149999842047691
      vertex 0.027630610391497612 6.0840488004032522e-05 -0.029149999842047691
    endloop
  endfacet
  facet normal -0 1 -0
    outer loop
      vertex -0.027704847976565361 0.026275556534528732 -0.013749999925494194
      vertex -3.7118614272912964e-05 0.026275556534528732 -0.013749999925494194
      vertex -3.7118614272912964e-05 0.026275556534528732 -0.029149999842047691
    endloop
  endfacet
  facet normal -0 1 -0
    outer loop
      vertex -3.7118614272912964e-05 0.026275556534528732 -0.013749999925494194
      vertex 0.027630610391497612 0.026275556534528732 -0.013749999925494194
      vertex 0.027630610391497612 0.026275556534528732 -0.029149999842047691
    endloop
  endfacet
  facet normal 0 1 0
    outer loop
      vertex 0.027630610391497612 0.026275556534528732 -0.029149999842047691
      vertex -3.7118614272912964e-05 0.026275556534528732 -0.029149999842047691
      vertex -3.7118614272912964e-05 0.026275556534528732 -0.013749999925494194
    endloop
  endfacet
  facet normal 0 1 0
    outer loop
      vertex -3.7118614272912964e-05 0.026275556534528732 -0.029149999842047691
      vertex -0.027704847976565361 0.026275556534528732 -0.029149999842047691
      vertex -0.027704847976565361 0.026275556534528732 -0.013749999925494194
    endloop
  endfacet
  facet normal 1 0 -0
    outer loop
      vertex 0.027630610391497612 0.026275556534528732 -0.013749999925494194
      vertex 0.027630610391497612 6.0840488004032522e-05 -0.013749999925494194
      vertex 0.027630610391497612 0.026275556534528732 -0.029149999842047691
    endloop
  endfacet
  facet normal 1 0 -0
    outer loop
      vertex 0.027630610391497612 6.0840488004032522e-05 -0.013749999925494194
      vertex 0.027630610391497612 -0.026153875514864922 -0.013749999925494194
      vertex 0.027630610391497612 6.0840488004032522e-05 -0.029149999842047691
    endloop
  endfacet
  facet normal 1 -0 0
    outer loop
      vertex 0.027630610391497612 -0.026153875514864922 -0.029149999842047691
      vertex 0.027630610391497612 6.0840488004032522e-05 -0.029149999842047691
      vertex 0.027630610391497612 -0.026153875514864922 -0.013749999925494194
    endloop
  endfacet
  facet normal 1 -0 0
    outer loop
      vertex 0.027630610391497612 6.0840488004032522e-05 -0.029149999842047691
      vertex 0.027630610391497612 0.026275556534528732 -0.029149999842047691
      vertex 0.027630610391497612 6.0840488004032522e-05 -0.013749999925494194
    endloop
  endfacet
  facet normal -0 -1 0
    outer loop
      vertex 0.027630610391497612 -0.026153875514864922 -0.013749999925494194
      vertex -3.7118614272912964e-05 -0.026153875514864922 -0.013749999925494194
      vertex -3.7118614272912964e-05 -0.026153875514864922 -0.029149999842047691
    endloop
  endfacet
  facet normal -0 -1 0
    outer loop
      vertex -3.7118614272912964e-05 -0.026153875514864922 -0.013749999925494194
      vertex -0.027704847976565361 -0.026153875514864922 -0.013749999925494194
      vertex -0.027704847976565361 -0.026153875514864922 -0.029149999842047691
    endloop
  endfacet
  facet normal 0 -1 -0
    outer loop
      vertex -0.027704847976565361 -0.026153875514864922 -0.029149999842047691
      vertex -3.7118614272912964e-05 -0.026153875514864922 -0.029149999842047691
      vertex -3.7118614272912964e-05 -0.026153875514864922 -0.013749999925494194
    endloop
  endfacet
  facet normal 0 -1 -0
    outer loop
      vertex -3.7118614272912964e-05 -0.026153875514864922 -0.029149999842047691
      vertex 0.027630610391497612 -0.026153875514864922 -0.029149999842047691
      vertex 0.027630610391497612 -0.026153875514864922 -0.013749999925494194
    endloop
  endfacet
  facet normal 0 0 -1
    outer loop
      vertex 0.039099998772144318 0.032449938356876373 -0.013749999925494194
      vertex 0.039099998772144318 -7.5030024163424969e-05 -0.013749999925494194
      vertex 0 0.032524969428777695 -0.013749999925494194
    endloop
  endfacet
  facet normal -0 0 -1
    outer loop
      vertex 0.039099998772144318 -7.5030024163424969e-05 -0.013749999925494194
      vertex 0.039099998772144318 -0.032600000500679016 -0.013749999925494194
      vertex 0 -0.032600000500679016 -0.013749999925494194
    endloop
  endfacet
  facet normal 0 0 -1
    outer loop
      vertex -0.039099998772144318 0.032600000500679016 -0.013749999925494194
      vertex 0 0.032524969428777695 -0.013749999925494194
      vertex -0.039099998772144318 -6.6960326172704754e-16 -0.013749999925494194
    endloop
  endfacet
  facet normal 0 -0 -1
    outer loop
      vertex -0.039099998772144318 -0.032600000500679016 -0.013749999925494194
      vertex -0.039099998772144318 -6.6960326172704754e-16 -0.013749999925494194
      vertex 0 -0.032600000500679016 -0.013749999925494194
    endloop
  endfacet
  facet normal 0 0 -1
    outer loop
      vertex 0 0.032524969428777695 -0.013749999925494194
      vertex 0.039099998772144318 -7.5030024163424969e-05 -0.013749999925494194
      vertex 0 -0.032600000500679016 -0.013749999925494194
    endloop
  endfacet
  facet normal -0 -0 -1
    outer loop
      vertex -0.039099998772144318 -6.6960326172704754e-16 -0.013749999925494194
      vertex 0 0.032524969428777695 -0.013749999925494194
      vertex 0 -0.032600000500679016 -0.013749999925494194
    endloop
  endfacet
  facet normal 0.0019189497726693069 0.99999815881418996 0
    outer loop
      vertex 0.039099998772144318 0.032449938356876373 0.010750000365078449
      vertex 0.039099998772144318 0.032449938356876373 -0.013749999925494194
      vertex 0 0.032524969428777695 -0.013749999925494194
    endloop
  endfacet
  facet normal 0.0019189497726693069 0.99999815881418996 0
    outer loop
      vertex 0 0.032524969428777695 -0.013749999925494194
      vertex -0.039099998772144318 0.032600000500679016 -0.013749999925494194
      vertex -0.039099998772144318 0.032600000500679016 0.010750000365078449
    endloop
  endfacet
  facet normal 0.0019189497726693069 0.99999815881418996 0
    outer loop
      vertex -0.039099998772144318 0.032600000500679016 0.010750000365078449
      vertex 0 0.032524969428777695 0.010750000365078449
      vertex 0 0.032524969428777695 -0.013749999925494194
    endloop
  endfacet
  facet normal 0.0019189497726693069 0.99999815881418996 0
    outer loop
      vertex 0 0.032524969428777695 0.010750000365078449
      vertex 0.039099998772144318 0.032449938356876373 0.010750000365078449
      vertex 0 0.032524969428777695 -0.013749999925494194
    endloop
  endfacet
  facet normal 0 -0 1
    outer loop
      vertex 0.039099998772144318 0.032449938356876373 0.010750000365078449
      vertex 0 0.032524969428777695 0.010750000365078449
      vertex 0.039099998772144318 -7.5030024163424969e-05 0.010750000365078449
    endloop
  endfacet
  facet normal 0 -0 1
    outer loop
      vertex 0.039099998772144318 -7.5030024163424969e-05 0.010750000365078449
      vertex 0 -0.032600000500679016 0.010750000365078449
      vertex 0.039099998772144318 -0.032600000500679016 0.010750000365078449
    endloop
  endfacet
  facet normal 0 -0 1
    outer loop
      vertex -0.039099998772144318 0.032600000500679016 0.010750000365078449
      vertex -0.039099998772144318 -6.6960326172704754e-16 0.010750000365078449
      vertex 0 0.032524969428777695 0.010750000365078449
    endloop
  endfacet
  facet normal -0 0 1
    outer loop
      vertex -0.039099998772144318 -0.032600000500679016 0.010750000365078449
      vertex 0 -0.032600000500679016 0.010750000365078449
      vertex -0.039099998772144318 -6.6960326172704754e-16 0.010750000365078449
    endloop
  endfacet
  facet normal 0 0 1
    outer loop
      vertex 0 0.032524969428777695 0.010750000365078449
      vertex 0 -0.032600000500679016 0.010750000365078449
      vertex 0.039099998772144318 -7.5030024163424969e-05 0.010750000365078449
    endloop
  endfacet
  facet normal 0 -0 1
    outer loop
      vertex -0.039099998772144318 -6.6960326172704754e-16 0.010750000365078449
      vertex 0 -0.032600000500679016 0.010750000365078449
      vertex 0 0.032524969428777695 0.010750000365078449
    endloop
  endfacet
  facet normal -1 -0 -0
    outer loop
      vertex -0.039099998772144318 0.032600000500679016 -0.013749999925494194
      vertex -0.039099998772144318 -6.6960326172704754e-16 -0.013749999925494194
      vertex -0.039099998772144318 -6.6960326172704754e-16 0.010750000365078449
    endloop
  endfacet
  facet normal -1 -0 -0
    outer loop
      vertex -0.039099998772144318 -6.6960326172704754e-16 -0.013749999925494194
      vertex -0.039099998772144318 -0.032600000500679016 -0.013749999925494194
      vertex -0.039099998772144318 -0.032600000500679016 0.010750000365078449
    endloop
  endfacet
  facet normal -1 0 0
    outer loop
      vertex -0.039099998772144318 -0.032600000500679016 0.010750000365078449
      vertex -0.039099998772144318 -6.6960326172704754e-16 0.010750000365078449
      vertex -0.039099998772144318 -6.6960326172704754e-16 -0.013749999925494194
    endloop
  endfacet
  facet normal -1 0 0
    outer loop
      vertex -0.039099998772144318 -6.6960326172704754e-16 0.010750000365078449
      vertex -0.039099998772144318 0.032600000500679016 0.010750000365078449
      vertex -0.039099998772144318 0.032600000500679016 -0.013749999925494194
    endloop
  endfacet
  facet normal 0 -1 -0
    outer loop
      vertex -0.039099998772144318 -0.032600000500679016 -0.013749999925494194
      vertex 0 -0.032600000500679016 -0.013749999925494194
      vertex 0 -0.032600000500679016 0.010750000365078449
    endloop
  endfacet
  facet normal 0 -1 -0
    outer loop
      vertex 0 -0.032600000500679016 -0.013749999925494194
      vertex 0.039099998772144318 -0.032600000500679016 -0.013749999925494194
      vertex 0.039099998772144318 -0.032600000500679016 0.010750000365078449
    endloop
  endfacet
  facet normal -0 -1 0
    outer loop
      vertex 0.039099998772144318 -0.032600000500679016 0.010750000365078449
      vertex 0 -0.032600000500679016 0.010750000365078449
      vertex 0 -0.032600000500679016 -0.013749999925494194
    endloop
  endfacet
  facet normal -0 -1 0
    outer loop
      vertex 0 -0.032600000500679016 0.010750000365078449
      vertex -0.039099998772144318 -0.032600000500679016 0.010750000365078449
      vertex -0.039099998772144318 -0.032600000500679016 -0.013749999925494194
    endloop
  endfacet
  facet normal 1 -0 0
    outer loop
      vertex 0.039099998772144318 -0.032600000500679016 -0.013749999925494194
      vertex 0.039099998772144318 -7.5030024163424969e-05 -0.013749999925494194
      vertex 0.039099998772144318 -7.5030024163424969e-05 0.010750000365078449
    endloop
  endfacet
  facet normal 1 -0 0
    outer loop
      vertex 0.039099998772144318 -7.5030024163424969e-05 -0.013749999925494194
      vertex 0.039099998772144318 0.032449938356876373 -0.013749999925494194
      vertex 0.039099998772144318 0.032449938356876373 0.010750000365078449
    endloop
  endfacet
  facet normal 1 0 -0
    outer loop
      vertex 0.039099998772144318 0.032449938356876373 0.010750000365078449
      vertex 0.039099998772144318 -7.5030024163424969e-05 0.010750000365078449
      vertex 0.039099998772144318 -7.5030024163424969e-05 -0.013749999925494194
    endloop
  endfacet
  facet normal 1 0 -0
    outer loop
      vertex 0.039099998772144318 -7.5030024163424969e-05 0.010750000365078449
      vertex 0.039099998772144318 -0.032600000500679016 0.010750000365078449
      vertex 0.039099998772144318 -0.032600000500679016 -0.013749999925494194
    endloop
  endfacet
  facet normal -0 0 1
    outer loop
      vertex -0.04075000062584877 -0.03424999862909317 0.01575000025331974
      vertex -0.020375000312924385 -0.03424999862909317 0.01575000025331974
      vertex -0.04075000062584877 -0.017103180289268494 0.01575000025331974
    endloop
  endfacet
  facet normal 0 0 1
    outer loop
      vertex -0.020375000312924385 -0.03424999862909317 0.01575000025331974
      vertex 0 -0.03424999862909317 0.01575000025331974
      vertex -0.04075000062584877 -0.017103180289268494 0.01575000025331974
    endloop
  endfacet
  facet normal 0 0 1
    outer loop
      vertex 0 -0.03424999862909317 0.01575000025331974
      vertex 0.020375000312924385 -0.03424999862909317 0.01575000025331974
      vertex 0.04075000062584877 -0.017103180289268494 0.01575000025331974
    endloop
  endfacet
  facet normal -0 0 1
    outer loop
      vertex 0.020375000312924385 -0.03424999862909317 0.01575000025331974
      vertex 0.04075000062584877 -0.03424999862909317 0.01575000025331974
      vertex 0.04075000062584877 -0.017103180289268494 0.01575000025331974
    endloop
  endfacet
  facet normal 0 -0 1
    outer loop
      vertex -0.04075000062584877 0.034337274730205536 0.01575000025331974
      vertex -0.04075000062584877 0.017190456390380859 0.01575000025331974
      vertex -0.020375000312924385 0.034337274730205536 0.01575000025331974
    endloop
  endfacet
  facet normal 0 -0 1
    outer loop
      vertex -0.04075000062584877 0.017190456390380859 0.01575000025331974
      vertex -0.04075000062584877 4.3637661292450503e-05 0.01575000025331974
      vertex -0.020375000312924385 0.034337274730205536 0.01575000025331974
    endloop
  endfacet
  facet normal -0 -0 1
    outer loop
      vertex -0.04075000062584877 4.3637661292450503e-05 0.01575000025331974
      vertex -0.04075000062584877 -0.017103180289268494 0.01575000025331974
      vertex 0 -0.03424999862909317 0.01575000025331974
    endloop
  endfacet
  facet normal 0 -0 1
    outer loop
      vertex 0.04075000062584877 0.034337274730205536 0.01575000025331974
      vertex 0.020375000312924385 0.034337274730205536 0.01575000025331974
      vertex 0.04075000062584877 0.017190456390380859 0.01575000025331974
    endloop
  endfacet
  facet normal -0 -0 1
    outer loop
      vertex 0.020375000312924385 0.034337274730205536 0.01575000025331974
      vertex 0 0.034337274730205536 0.01575000025331974
      vertex 0.04075000062584877 4.3637661292450503e-05 0.01575000025331974
    endloop
  endfacet
  facet normal 0 -0 1
    outer loop
      vertex 0 0.034337274730205536 0.01575000025331974
      vertex -0.020375000312924385 0.034337274730205536 0.01575000025331974
      vertex -0.04075000062584877 4.3637661292450503e-05 0.01575000025331974
    endloop
  endfacet
  facet normal 0 0 1
    outer loop
      vertex 0.04075000062584877 -0.017103180289268494 0.01575000025331974
      vertex 0.04075000062584877 4.3637661292450503e-05 0.01575000025331974
      vertex 0 -0.03424999862909317 0.01575000025331974
    endloop
  endfacet
  facet normal 0 0 1
    outer loop
      vertex 0.04075000062584877 4.3637661292450503e-05 0.01575000025331974
      vertex 0.04075000062584877 0.017190456390380859 0.01575000025331974
      vertex 0.020375000312924385 0.034337274730205536 0.01575000025331974
    endloop
  endfacet
  facet normal 0 -0 1
    outer loop
      vertex -0.04075000062584877 4.3637661292450503e-05 0.01575000025331974
      vertex 0 -0.03424999862909317 0.01575000025331974
      vertex 0 0.034337274730205536 0.01575000025331974
    endloop
  endfacet
  facet normal -0 0 1
    outer loop
      vertex 0.04075000062584877 4.3637661292450503e-05 0.01575000025331974
      vertex 0 0.034337274730205536 0.01575000025331974
      vertex 0 -0.03424999862909317 0.01575000025331974
    endloop
  endfacet
  facet normal -1 0 -0
    outer loop
      vertex -0.04075000062584877 -0.03424999862909317 0.010750000365078449
      vertex -0.04075000062584877 -0.03424999862909317 0.01575000025331974
      vertex -0.04075000062584877 -0.017103180289268494 0.010750000365078449
    endloop
  endfacet
  facet normal -1 0 0
    outer loop
      vertex -0.04075000062584877 -0.03424999862909317 0.01575000025331974
      vertex -0.04075000062584877 -0.017103180289268494 0.01575000025331974
      vertex -0.04075000062584877 -0.017103180289268494 0.010750000365078449
    endloop
  endfacet
  facet normal -1 0 0
    outer loop
      vertex -0.04075000062584877 -0.017103180289268494 0.01575000025331974
      vertex -0.04075000062584877 4.3637661292450503e-05 0.01575000025331974
      vertex -0.04075000062584877 4.3637661292450503e-05 0.010750000365078449
    endloop
  endfacet
  facet normal -1 0 0
    outer loop
      vertex -0.04075000062584877 4.3637661292450503e-05 0.01575000025331974
      vertex -0.04075000062584877 0.017190456390380859 0.01575000025331974
      vertex -0.04075000062584877 4.3637661292450503e-05 0.010750000365078449
    endloop
  endfacet
  facet normal -1 0 0
    outer loop
      vertex -0.04075000062584877 0.017190456390380859 0.01575000025331974
      vertex -0.04075000062584877 0.034337274730205536 0.01575000025331974
      vertex -0.04075000062584877 0.017190456390380859 0.010750000365078449
    endloop
  endfacet
  facet normal -1 -0 -0
    outer loop
      vertex -0.04075000062584877 0.034337274730205536 0.010750000365078449
      vertex -0.04075000062584877 0.017190456390380859 0.010750000365078449
      vertex -0.04075000062584877 0.034337274730205536 0.01575000025331974
    endloop
  endfacet
  facet normal -1 -0 -0
    outer loop
      vertex -0.04075000062584877 0.017190456390380859 0.010750000365078449
      vertex -0.04075000062584877 4.3637661292450503e-05 0.010750000365078449
      vertex -0.04075000062584877 0.017190456390380859 0.01575000025331974
    endloop
  endfacet
  facet normal -1 -0 -0
    outer loop
      vertex -0.04075000062584877 4.3637661292450503e-05 0.010750000365078449
      vertex -0.04075000062584877 -0.017103180289268494 0.010750000365078449
      vertex -0.04075000062584877 -0.017103180289268494 0.01575000025331974
    endloop
  endfacet
  facet normal 0 -0 -1
    outer loop
      vertex -0.04075000062584877 -0.03424999862909317 0.010750000365078449
      vertex -0.04075000062584877 -0.017103180289268494 0.010750000365078449
      vertex -0.020375000312924385 -0.03424999862909317 0.010750000365078449
    endloop
  endfacet
  facet normal 0 -0 -1
    outer loop
      vertex -0.020375000312924385 -0.03424999862909317 0.010750000365078449
      vertex -0.04075000062584877 -0.017103180289268494 0.010750000365078449
      vertex 0 -0.03424999862909317 0.010750000365078449
    endloop
  endfacet
  facet normal 0 0 -1
    outer loop
      vertex 0 -0.03424999862909317 0.010750000365078449
      vertex 0.04075000062584877 -0.017103180289268494 0.010750000365078449
      vertex 0.020375000312924385 -0.03424999862909317 0.010750000365078449
    endloop
  endfacet
  facet normal 0 0 -1
    outer loop
      vertex 0.020375000312924385 -0.03424999862909317 0.010750000365078449
      vertex 0.04075000062584877 -0.017103180289268494 0.010750000365078449
      vertex 0.04075000062584877 -0.03424999862909317 0.010750000365078449
    endloop
  endfacet
  facet normal 0 0 -1
    outer loop
      vertex -0.04075000062584877 0.034337274730205536 0.010750000365078449
      vertex -0.020375000312924385 0.034337274730205536 0.010750000365078449
      vertex -0.04075000062584877 0.017190456390380859 0.010750000365078449
    endloop
  endfacet
  facet normal 0 -0 -1
    outer loop
      vertex -0.04075000062584877 0.017190456390380859 0.010750000365078449
      vertex -0.020375000312924385 0.034337274730205536 0.010750000365078449
      vertex -0.04075000062584877 4.3637661292450503e-05 0.010750000365078449
    endloop
  endfacet
  facet normal 0 0 -1
    outer loop
      vertex -0.04075000062584877 4.3637661292450503e-05 0.010750000365078449
      vertex 0 -0.03424999862909317 0.010750000365078449
      vertex -0.04075000062584877 -0.017103180289268494 0.010750000365078449
    endloop
  endfacet
  facet normal 0 0 -1
    outer loop
      vertex 0.04075000062584877 0.034337274730205536 0.010750000365078449
      vertex 0.04075000062584877 0.017190456390380859 0.010750000365078449
      vertex 0.020375000312924385 0.034337274730205536 0.010750000365078449
    endloop
  endfacet
  facet normal 0 0 -1
    outer loop
      vertex 0.020375000312924385 0.034337274730205536 0.010750000365078449
      vertex 0.04075000062584877 4.3637661292450503e-05 0.010750000365078449
      vertex 0 0.034337274730205536 0.010750000365078449
    endloop
  endfacet
  facet normal 0 -0 -1
    outer loop
      vertex 0 0.034337274730205536 0.010750000365078449
      vertex -0.04075000062584877 4.3637661292450503e-05 0.010750000365078449
      vertex -0.020375000312924385 0.034337274730205536 0.010750000365078449
    endloop
  endfacet
  facet normal 0 -0 -1
    outer loop
      vertex 0.04075000062584877 -0.017103180289268494 0.010750000365078449
      vertex 0 -0.03424999862909317 0.010750000365078449
      vertex 0.04075000062584877 4.3637661292450503e-05 0.010750000365078449
    endloop
  endfacet
  facet normal 0 0 -1
    outer loop
      vertex 0.04075000062584877 4.3637661292450503e-05 0.010750000365078449
      vertex 0.020375000312924385 0.034337274730205536 0.010750000365078449
      vertex 0.04075000062584877 0.017190456390380859 0.010750000365078449
    endloop
  endfacet
  facet normal -0 -0 -1
    outer loop
      vertex -0.04075000062584877 4.3637661292450503e-05 0.010750000365078449
      vertex 0 0.034337274730205536 0.010750000365078449
      vertex 0 -0.03424999862909317 0.010750000365078449
    endloop
  endfacet
  facet normal 0 0 -1
    outer loop
      vertex 0.04075000062584877 4.3637661292450503e-05 0.010750000365078449
      vertex 0 -0.03424999862909317 0.010750000365078449
      vertex 0 0.034337274730205536 0.010750000365078449
    endloop
  endfacet
  facet normal -0 1 -0
    outer loop
      vertex -0.04075000062584877 0.034337274730205536 0.01575000025331974
      vertex -0.020375000312924385 0.034337274730205536 0.01575000025331974
      vertex -0.020375000312924385 0.034337274730205536 0.010750000365078449
    endloop
  endfacet
  facet normal -0 1 -0
    outer loop
      vertex -0.020375000312924385 0.034337274730205536 0.01575000025331974
      vertex 0 0.034337274730205536 0.01575000025331974
      vertex 0 0.034337274730205536 0.010750000365078449
    endloop
  endfacet
  facet normal -0 1 -0
    outer loop
      vertex 0 0.034337274730205536 0.01575000025331974
      vertex 0.020375000312924385 0.034337274730205536 0.01575000025331974
      vertex 0.020375000312924385 0.034337274730205536 0.010750000365078449
    endloop
  endfacet
  facet normal -0 1 -0
    outer loop
      vertex 0.020375000312924385 0.034337274730205536 0.01575000025331974
      vertex 0.04075000062584877 0.034337274730205536 0.01575000025331974
      vertex 0.04075000062584877 0.034337274730205536 0.010750000365078449
    endloop
  endfacet
  facet normal 0 1 0
    outer loop
      vertex 0.04075000062584877 0.034337274730205536 0.010750000365078449
      vertex 0.020375000312924385 0.034337274730205536 0.010750000365078449
      vertex 0.020375000312924385 0.034337274730205536 0.01575000025331974
    endloop
  endfacet
  facet normal 0 1 0
    outer loop
      vertex 0.020375000312924385 0.034337274730205536 0.010750000365078449
      vertex 0 0.034337274730205536 0.010750000365078449
      vertex 0 0.034337274730205536 0.01575000025331974
    endloop
  endfacet
  facet normal 0 1 0
    outer loop
      vertex 0 0.034337274730205536 0.010750000365078449
      vertex -0.020375000312924385 0.034337274730205536 0.010750000365078449
      vertex -0.020375000312924385 0.034337274730205536 0.01575000025331974
    endloop
  endfacet
  facet normal 0 1 0
    outer loop
      vertex -0.020375000312924385 0.034337274730205536 0.010750000365078449
      vertex -0.04075000062584877 0.034337274730205536 0.010750000365078449
      vertex -0.04075000062584877 0.034337274730205536 0.01575000025331974
    endloop
  endfacet
  facet normal 1 0 -0
    outer loop
      vertex 0.04075000062584877 0.034337274730205536 0.01575000025331974
      vertex 0.04075000062584877 0.017190456390380859 0.01575000025331974
      vertex 0.04075000062584877 0.017190456390380859 0.010750000365078449
    endloop
  endfacet
  facet normal 1 0 -0
    outer loop
      vertex 0.04075000062584877 0.017190456390380859 0.01575000025331974
      vertex 0.04075000062584877 4.3637661292450503e-05 0.01575000025331974
      vertex 0.04075000062584877 4.3637661292450503e-05 0.010750000365078449
    endloop
  endfacet
  facet normal 1 0 -0
    outer loop
      vertex 0.04075000062584877 4.3637661292450503e-05 0.01575000025331974
      vertex 0.04075000062584877 -0.017103180289268494 0.01575000025331974
      vertex 0.04075000062584877 -0.017103180289268494 0.010750000365078449
    endloop
  endfacet
  facet normal 1 0 -0
    outer loop
      vertex 0.04075000062584877 -0.017103180289268494 0.01575000025331974
      vertex 0.04075000062584877 -0.03424999862909317 0.01575000025331974
      vertex 0.04075000062584877 -0.03424999862909317 0.010750000365078449
    endloop
  endfacet
  facet normal 1 -0 0
    outer loop
      vertex 0.04075000062584877 -0.03424999862909317 0.010750000365078449
      vertex 0.04075000062584877 -0.017103180289268494 0.010750000365078449
      vertex 0.04075000062584877 -0.017103180289268494 0.01575000025331974
    endloop
  endfacet
  facet normal 1 -0 0
    outer loop
      vertex 0.04075000062584877 -0.017103180289268494 0.010750000365078449
      vertex 0.04075000062584877 4.3637661292450503e-05 0.010750000365078449
      vertex 0.04075000062584877 4.3637661292450503e-05 0.01575000025331974
    endloop
  endfacet
  facet normal 1 -0 0
    outer loop
      vertex 0.04075000062584877 4.3637661292450503e-05 0.010750000365078449
      vertex 0.04075000062584877 0.017190456390380859 0.010750000365078449
      vertex 0.04075000062584877 0.017190456390380859 0.01575000025331974
    endloop
  endfacet
  facet normal 1 -0 0
    outer loop
      vertex 0.04075000062584877 0.017190456390380859 0.010750000365078449
      vertex 0.04075000062584877 0.034337274730205536 0.010750000365078449
      vertex 0.04075000062584877 0.034337274730205536 0.01575000025331974
    endloop
  endfacet
  facet normal -0 -1 0
    outer loop
      vertex 0.04075000062584877 -0.03424999862909317 0.01575000025331974
      vertex 0.020375000312924385 -0.03424999862909317 0.01575000025331974
      vertex 0.04075000062584877 -0.03424999862909317 0.010750000365078449
    endloop
  endfacet
  facet normal -0 -1 0
    outer loop
      vertex 0.020375000312924385 -0.03424999862909317 0.01575000025331974
      vertex 0 -0.03424999862909317 0.01575000025331974
      vertex 0.020375000312924385 -0.03424999862909317 0.010750000365078449
    endloop
  endfacet
  facet normal -0 -1 0
    outer loop
      vertex 0 -0.03424999862909317 0.01575000025331974
      vertex -0.020375000312924385 -0.03424999862909317 0.01575000025331974
      vertex 0 -0.03424999862909317 0.010750000365078449
    endloop
  endfacet
  facet normal -0 -1 0
    outer loop
      vertex -0.020375000312924385 -0.03424999862909317 0.01575000025331974
      vertex -0.04075000062584877 -0.03424999862909317 0.01575000025331974
      vertex -0.020375000312924385 -0.03424999862909317 0.010750000365078449
    endloop
  endfacet
  facet normal 0 -1 0
    outer loop
      vertex -0.04075000062584877 -0.03424999862909317 0.01575000025331974
      vertex -0.04075000062584877 -0.03424999862909317 0.010750000365078449
      vertex -0.020375000312924385 -0.03424999862909317 0.010750000365078449
    endloop
  endfacet
  facet normal 0 -1 -0
    outer loop
      vertex -0.020375000312924385 -0.03424999862909317 0.010750000365078449
      vertex 0 -0.03424999862909317 0.010750000365078449
      vertex -0.020375000312924385 -0.03424999862909317 0.01575000025331974
    endloop
  endfacet
  facet normal 0 -1 -0
    outer loop
      vertex 0 -0.03424999862909317 0.010750000365078449
      vertex 0.020375000312924385 -0.03424999862909317 0.010750000365078449
      vertex 0 -0.03424999862909317 0.01575000025331974
    endloop
  endfacet
  facet normal 0 -1 -0
    outer loop
      vertex 0.020375000312924385 -0.03424999862909317 0.010750000365078449
      vertex 0.04075000062584877 -0.03424999862909317 0.010750000365078449
      vertex 0.020375000312924385 -0.03424999862909317 0.01575000025331974
    endloop
  endfacet
  facet normal -0 0 1
    outer loop
      vertex -0.031500000506639481 -0.031960725784301758 0.029249999672174454
      vertex 3.4694469519536142e-18 -0.031960725784301758 0.029249999672174454
      vertex -0.031500000506639481 -0.0030993630643934011 0.029249999672174454
    endloop
  endfacet
  facet normal -0 0 1
    outer loop
      vertex 3.4694469519536142e-18 -0.031960725784301758 0.029249999672174454
      vertex 0.031500000506639481 -0.031960725784301758 0.029249999672174454
      vertex 0.031500000506639481 -0.0030993630643934011 0.029249999672174454
    endloop
  endfacet
  facet normal 0 -0 1
    outer loop
      vertex -0.031500000506639481 0.025761999189853668 0.029249999672174454
      vertex -0.031500000506639481 -0.0030993630643934011 0.029249999672174454
      vertex 3.4694469519536142e-18 0.025761999189853668 0.029249999672174454
    endloop
  endfacet
  facet normal 0 -0 1
    outer loop
      vertex 0.031500000506639481 0.025761999189853668 0.029249999672174454
      vertex 3.4694469519536142e-18 0.025761999189853668 0.029249999672174454
      vertex 0.031500000506639481 -0.0030993630643934011 0.029249999672174454
    endloop
  endfacet
  facet normal 0 -0 1
    outer loop
      vertex -0.031500000506639481 -0.0030993630643934011 0.029249999672174454
      vertex 3.4694469519536142e-18 -0.031960725784301758 0.029249999672174454
      vertex 3.4694469519536142e-18 0.025761999189853668 0.029249999672174454
    endloop
  endfacet
  facet normal -0 0 1
    outer loop
      vertex 3.4694469519536142e-18 -0.031960725784301758 0.029249999672174454
      vertex 0.031500000506639481 -0.0030993630643934011 0.029249999672174454
      vertex 3.4694469519536142e-18 0.025761999189853668 0.029249999672174454
    endloop
  endfacet
  facet normal -1 0 -0
    outer loop
      vertex -0.031500000506639481 -0.031960725784301758 0.01575000025331974
      vertex -0.031500000506639481 -0.031960725784301758 0.029249999672174454
      vertex -0.031500000506639481 -0.0030993630643934011 0.01575000025331974
    endloop
  endfacet
  facet normal -1 0 0
    outer loop
      vertex -0.031500000506639481 -0.031960725784301758 0.029249999672174454
      vertex -0.031500000506639481 -0.0030993630643934011 0.029249999672174454
      vertex -0.031500000506639481 -0.0030993630643934011 0.01575000025331974
    endloop
  endfacet
  facet normal -1 0 0
    outer loop
      vertex -0.031500000506639481 -0.0030993630643934011 0.029249999672174454
      vertex -0.031500000506639481 0.025761999189853668 0.029249999672174454
      vertex -0.031500000506639481 -0.0030993630643934011 0.01575000025331974
    endloop
  endfacet
  facet normal -1 -0 -0
    outer loop
      vertex -0.031500000506639481 0.025761999189853668 0.01575000025331974
      vertex -0.031500000506639481 -0.0030993630643934011 0.01575000025331974
      vertex -0.031500000506639481 0.025761999189853668 0.029249999672174454
    endloop
  endfacet
  facet normal 0 -0 -1
    outer loop
      vertex -0.031500000506639481 -0.031960725784301758 0.01575000025331974
      vertex -0.031500000506639481 -0.0030993630643934011 0.01575000025331974
      vertex 3.4694469519536142e-18 -0.031960725784301758 0.01575000025331974
    endloop
  endfacet
  facet normal 0 0 -1
    outer loop
      vertex 3.4694469519536142e-18 -0.031960725784301758 0.01575000025331974
      vertex 0.031500000506639481 -0.0030993630643934011 0.01575000025331974
      vertex 0.031500000506639481 -0.031960725784301758 0.01575000025331974
    endloop
  endfacet
  facet normal 0 0 -1
    outer loop
      vertex -0.031500000506639481 0.025761999189853668 0.01575000025331974
      vertex 3.4694469519536142e-18 0.025761999189853668 0.01575000025331974
      vertex -0.031500000506639481 -0.0030993630643934011 0.01575000025331974
    endloop
  endfacet
  facet normal 0 0 -1
    outer loop
      vertex 0.031500000506639481 0.025761999189853668 0.01575000025331974
      vertex 0.031500000506639481 -0.0030993630643934011 0.01575000025331974
      vertex 3.4694469519536142e-18 0.025761999189853668 0.01575000025331974
    endloop
  endfacet
  facet normal -0 -0 -1
    outer loop
      vertex -0.031500000506639481 -0.0030993630643934011 0.01575000025331974
      vertex 3.4694469519536142e-18 0.025761999189853668 0.01575000025331974
      vertex 3.4694469519536142e-18 -0.031960725784301758 0.01575000025331974
    endloop
  endfacet
  facet normal -0 0 -1
    outer loop
      vertex 3.4694469519536142e-18 -0.031960725784301758 0.01575000025331974
      vertex 3.4694469519536142e-18 0.025761999189853668 0.01575000025331974
      vertex 0.031500000506639481 -0.0030993630643934011 0.01575000025331974
    endloop
  endfacet
  facet normal -0 1 -0
    outer loop
      vertex -0.031500000506639481 0.025761999189853668 0.029249999672174454
      vertex 3.4694469519536142e-18 0.025761999189853668 0.029249999672174454
      vertex -0.031500000506639481 0.025761999189853668 0.01575000025331974
    endloop
  endfacet
  facet normal -0 1 -0
    outer loop
      vertex 3.4694469519536142e-18 0.025761999189853668 0.029249999672174454
      vertex 0.031500000506639481 0.025761999189853668 0.029249999672174454
      vertex 3.4694469519536142e-18 0.025761999189853668 0.01575000025331974
    endloop
  endfacet
  facet normal 0 1 0
    outer loop
      vertex 0.031500000506639481 0.025761999189853668 0.01575000025331974
      vertex 3.4694469519536142e-18 0.025761999189853668 0.01575000025331974
      vertex 0.031500000506639481 0.025761999189853668 0.029249999672174454
    endloop
  endfacet
  facet normal 0 1 0
    outer loop
      vertex 3.4694469519536142e-18 0.025761999189853668 0.01575000025331974
      vertex -0.031500000506639481 0.025761999189853668 0.01575000025331974
      vertex 3.4694469519536142e-18 0.025761999189853668 0.029249999672174454
    endloop
  endfacet
  facet normal 1 0 -0
    outer loop
      vertex 0.031500000506639481 0.025761999189853668 0.029249999672174454
      vertex 0.031500000506639481 -0.0030993630643934011 0.029249999672174454
      vertex 0.031500000506639481 0.025761999189853668 0.01575000025331974
    endloop
  endfacet
  facet normal 1 0 -0
    outer loop
      vertex 0.031500000506639481 -0.0030993630643934011 0.029249999672174454
      vertex 0.031500000506639481 -0.031960725784301758 0.029249999672174454
      vertex 0.031500000506639481 -0.0030993630643934011 0.01575000025331974
    endloop
  endfacet
  facet normal 1 -0 0
    outer loop
      vertex 0.031500000506639481 -0.031960725784301758 0.01575000025331974
      vertex 0.031500000506639481 -0.0030993630643934011 0.01575000025331974
      vertex 0.031500000506639481 -0.031960725784301758 0.029249999672174454
    endloop
  endfacet
  facet normal 1 -0 0
    outer loop
      vertex 0.031500000506639481 -0.0030993630643934011 0.01575000025331974
      vertex 0.031500000506639481 0.025761999189853668 0.01575000025331974
      vertex 0.031500000506639481 -0.0030993630643934011 0.029249999672174454
    endloop
  endfacet
  facet normal -0 -1 0
    outer loop
      vertex 0.031500000506639481 -0.031960725784301758 0.029249999672174454
      vertex 3.4694469519536142e-18 -0.031960725784301758 0.029249999672174454
      vertex 0.031500000506639481 -0.031960725784301758 0.01575000025331974
    endloop
  endfacet
  facet normal -0 -1 0
    outer loop
      vertex 3.4694469519536142e-18 -0.031960725784301758 0.029249999672174454
      vertex -0.031500000506639481 -0.031960725784301758 0.029249999672174454
      vertex 3.4694469519536142e-18 -0.031960725784301758 0.01575000025331974
    endloop
  endfacet
  facet normal 0 -1 0
    outer loop
      vertex -0.031500000506639481 -0.031960725784301758 0.029249999672174454
      vertex -0.031500000506639481 -0.031960725784301758 0.01575000025331974
      vertex 3.4694469519536142e-18 -0.031960725784301758 0.01575000025331974
    endloop
  endfacet
  facet normal 0 -1 -0
    outer loop
      vertex 3.4694469519536142e-18 -0.031960725784301758 0.01575000025331974
      vertex 0.031500000506639481 -0.031960725784301758 0.01575000025331974
      vertex 3.4694469519536142e-18 -0.031960725784301758 0.029249999672174454
    endloop
  endfacet
endsolid OBJECT
